<svg xmlns="http://www.w3.org/2000/svg" viewBox="0 0 512 512" width="512px" height="512px" fill="#0070f3"><g><g><path d="M355.415,88.271c-43.766,0-68.689,18.826-95.247,71.942c-0.789,1.579-2.403,2.576-4.168,2.576 s-3.378-0.997-4.168-2.576c-22.782-45.563-45.698-71.942-95.415-71.942c-52.248,0-94.754,42.506-94.754,94.754 c0,49.363,24.844,85.31,62.931,122.512v-44.854c0-2.574,2.087-4.66,4.66-4.66h46.598c2.573,0,4.66,2.086,4.66,4.66v51.257h51.258 c2.573,0,4.66,2.086,4.66,4.66v46.598c0,2.574-2.086,4.66-4.66,4.66h-36.946c20.445,17.682,40.647,35.601,61.174,55.872 c26.072-25.788,51.571-47.702,76.264-68.924c65.97-56.696,118.076-101.477,118.076-171.781 C450.337,130.776,407.755,88.271,355.415,88.271z M269.047,270.002h-18.639v-18.639h18.639V270.002z M269.047,242.043h-18.639 v-18.639h18.639V242.043z M269.047,214.085h-18.639v-18.64h18.639V214.085z M346.188,283.198c-0.794,0.53-1.691,0.784-2.58,0.784 c-1.506,0-2.983-0.729-3.882-2.076c-1.428-2.142-0.849-5.035,1.293-6.462c33.247-22.165,49.408-52.833,48.033-91.152 c-1.041-28.996-12.227-51.776-12.34-52.003c-1.146-2.303-0.211-5.101,2.09-6.249c2.305-1.149,5.099-0.216,6.247,2.085 c0.494,0.987,12.113,24.554,13.303,55.491C399.461,212.441,391.312,253.116,346.188,283.198z"/><path d="M227.109,321.26h-51.258c-2.573,0-4.66-2.086-4.66-4.66v-51.258h-37.278v51.108v0.149 c0,0.142-0.029,0.273-0.042,0.411c-0.006,0.051-0.008,0.104-0.016,0.154c-0.282,2.305-2.223,4.095-4.603,4.095H77.996v37.278 h51.258c2.573,0,4.66,2.086,4.66,4.659v51.258h37.278v-51.258c0-2.573,2.086-4.659,4.66-4.659h6.43h44.828V321.26z"/></g></g><g/></svg>