<svg xmlns="http://www.w3.org/2000/svg" viewBox="0 0 512 512" width="512px" height="512px" fill="#0070f3"><g><g><path d="m328.406,99.34399l-107.34,0l-0.077,0l-0.104,0l-87.532,0l0,353.482l20.89,0l0,-301.411c0,-1.754 1.418,-3.173 3.173,-3.173c1.753,0 3.172,1.419 3.172,3.173l0,301.411l23.313,0l0,-301.411c0,-1.754 1.42,-3.173 3.173,-3.173s3.172,1.419 3.172,3.173l0,301.411l23.314,0l0,-301.411c0,-1.754 1.419,-3.173 3.172,-3.173s3.173,1.419 3.173,3.173l0,301.411l23.313,0l0,-301.411c0,-1.754 1.419,-3.173 3.172,-3.173c1.755,0 3.173,1.419 3.173,3.173l0,301.411l23.313,0l0,-301.411c0,-1.754 1.419,-3.173 3.173,-3.173c1.728,0 3.172,1.419 3.172,3.173l0,301.411l23.315,0l0,-301.411c0,-1.754 1.418,-3.173 3.171,-3.173c1.729,0 3.173,1.419 3.173,3.173l0,301.411l19.523,0l0,-353.482l0.003,0zm-104.27,-6.345l107.443,0c1.728,0 3.146,1.444 3.146,3.173l0,356.654l46.422,0l0,-394.747l-25.377,0l-0.077,0l-101.899,0l-0.077,0l-29.582,0l0,22.18l0,0.077l0,12.663l0.001,0zm32.831,-41.265l95.553,0l0,-12.869l-21.664,0l-0.076,0l-52.071,0l-0.077,0l-21.664,0l0,12.869l-0.001,0zm104.168,72.034c0,-1.754 1.419,-3.172 3.172,-3.172c1.729,0 3.173,1.418 3.173,3.172l0,15.68c0,1.754 -1.444,3.173 -3.173,3.173c-1.753,0 -3.172,-1.419 -3.172,-3.173l0,-15.68zm0,44.566c0,-1.754 1.419,-3.174 3.172,-3.174c1.729,0 3.173,1.42 3.173,3.174l0,15.68c0,1.754 -1.444,3.172 -3.173,3.172c-1.753,0 -3.172,-1.418 -3.172,-3.172l0,-15.68zm0,44.564c0,-1.754 1.419,-3.172 3.172,-3.172c1.729,0 3.173,1.418 3.173,3.172l0,15.681c0,1.754 -1.444,3.173 -3.173,3.173c-1.753,0 -3.172,-1.419 -3.172,-3.173l0,-15.681zm0,44.566c0,-1.753 1.419,-3.171 3.172,-3.171c1.729,0 3.173,1.418 3.173,3.171l0,15.682c0,1.753 -1.444,3.172 -3.173,3.172c-1.753,0 -3.172,-1.419 -3.172,-3.172l0,-15.682zm0,44.566c0,-1.729 1.419,-3.173 3.172,-3.173c1.729,0 3.173,1.444 3.173,3.173l0,15.681c0,1.754 -1.444,3.172 -3.173,3.172c-1.753,0 -3.172,-1.418 -3.172,-3.172l0,-15.681zm0,44.566c0,-1.728 1.419,-3.146 3.172,-3.146c1.729,0 3.173,1.419 3.173,3.146l0,15.681c0,1.754 -1.444,3.173 -3.173,3.173c-1.753,0 -3.172,-1.419 -3.172,-3.173l0,-15.681zm0,-267.395c0,-1.754 1.419,-3.172 3.172,-3.172c1.729,0 3.173,1.418 3.173,3.172l0,15.682c0,1.754 -1.444,3.171 -3.173,3.171c-1.753,0 -3.172,-1.417 -3.172,-3.171l0,-15.682zm0,311.987c0,-1.754 1.419,-3.172 3.172,-3.172c1.729,0 3.173,1.418 3.173,3.172l0,15.655c0,1.754 -1.444,3.172 -3.173,3.172c-1.753,0 -3.172,-1.418 -3.172,-3.172l0,-15.655zm83.715,25.712l0,47.455l-6.344,0l0,-46.269c-3.275,-0.206 -6.241,-1.625 -8.435,-3.791l-0.128,-0.129c-2.27,-2.347 -3.688,-5.545 -3.688,-9.078l0,-0.283c0,-1.729 -1.392,-3.173 -3.12,-3.173l-1.651,0.155l-1.187,0.025c-4.513,0 -8.587,-1.831 -11.528,-4.798c-2.939,-2.939 -4.771,-7.014 -4.771,-11.527c0,-0.799 0.026,-1.521 0.13,-2.193l0,-0.076c0.104,-0.671 0.232,-1.341 0.439,-2.037c0.335,-1.291 -0.155,-2.631 -1.187,-3.379c-1.008,-0.903 -1.832,-2.037 -2.425,-3.301l-0.051,-0.104c-0.543,-1.238 -0.852,-2.605 -0.852,-4.075c0,-2.553 0.979,-4.899 2.553,-6.681c1.572,-1.779 3.817,-2.99 6.319,-3.301c1.521,-0.154 2.655,-1.392 2.785,-2.862c0.361,-2.398 1.599,-4.538 3.353,-6.061c1.753,-1.547 4.049,-2.476 6.602,-2.476c1.187,0 2.295,0.205 3.327,0.541c1.083,0.388 2.09,0.954 2.941,1.65c1.366,1.109 3.352,0.877 4.46,-0.49c0.465,-0.566 0.697,-1.289 0.697,-1.985c0.154,-4.255 1.986,-8.124 4.848,-10.909c2.889,-2.785 6.809,-4.488 11.168,-4.488c4.281,0 8.175,1.678 11.013,4.385c2.888,2.76 4.771,6.576 4.978,10.807c0.103,1.728 1.572,3.069 3.327,2.992l0.902,-0.026c2.76,0 5.261,1.136 7.093,2.94c1.806,1.805 2.939,4.333 2.939,7.092c0,1.341 -0.259,2.631 -0.748,3.791c-0.489,1.212 -1.213,2.296 -2.088,3.225c-1.239,1.237 -1.213,3.249 0.051,4.462l0.412,0.335c1.934,1.496 3.534,3.404 4.617,5.596c1.058,2.141 1.676,4.564 1.676,7.145c0,3.585 -1.187,6.912 -3.197,9.594l-0.104,0.154c-2.037,2.657 -4.899,4.669 -8.202,5.623c-1.548,0.464 -2.5,2.012 -2.218,3.585l0.104,1.47c0,2.76 -1.136,5.287 -2.939,7.118c-1.832,1.806 -4.334,2.914 -7.093,2.914c-1.263,0 -2.476,-0.231 -3.534,-0.618c-1.159,-0.439 -2.191,-1.084 -3.093,-1.857c-1.266,-1.109 -3.173,-1.031 -4.359,0.181c-1.084,1.133 -2.374,2.062 -3.792,2.732zm-371.356,0l0,47.971l-6.344,0l0,-46.784c-3.276,-0.206 -6.242,-1.625 -8.409,-3.791l-0.155,-0.129c-2.269,-2.347 -3.662,-5.545 -3.662,-9.078l-0.026,-0.283c0.026,-1.729 -1.367,-3.173 -3.12,-3.173l-1.651,0.155l-1.16,0.025c-4.514,0 -8.614,-1.831 -11.554,-4.798c-2.941,-2.939 -4.771,-7.014 -4.771,-11.527c0,-0.799 0.051,-1.521 0.128,-2.193l0,-0.076c0.104,-0.671 0.258,-1.341 0.439,-2.037c0.361,-1.291 -0.154,-2.631 -1.162,-3.379c-1.03,-0.903 -1.856,-2.037 -2.423,-3.301l-0.077,-0.104c-0.516,-1.238 -0.825,-2.605 -0.825,-4.075c0,-2.553 0.953,-4.899 2.527,-6.681c1.599,-1.779 3.816,-2.99 6.319,-3.301c1.521,-0.154 2.681,-1.392 2.811,-2.862c0.335,-2.398 1.572,-4.538 3.327,-6.061c1.753,-1.547 4.074,-2.476 6.601,-2.476c1.187,0 2.322,0.205 3.327,0.541c1.084,0.388 2.09,0.954 2.965,1.65c1.342,1.109 3.327,0.877 4.436,-0.49c0.465,-0.566 0.697,-1.289 0.697,-1.985c0.154,-4.255 1.986,-8.124 4.875,-10.909c2.864,-2.785 6.809,-4.488 11.141,-4.488c4.282,0 8.175,1.678 11.039,4.385c1.135,1.109 2.114,2.348 2.888,3.714l0.026,0.052l0.154,0.232l0.386,0.799l0.026,0.053l0,0l0.026,0.051l0.154,0.335l0.026,0.052l0.024,0.052l0,0.025l0.026,0.026l0,0.052l0.026,0.051l0.024,0.026l0,0.025l0.053,0.129l0.026,0.052l0,0l0.025,0.104l0.026,0.052l0,0l0.026,0.051l0.025,0.053l0,0.051l0.026,0.025l0,0.027l0.026,0.051l0.025,0.051l0,0.053l0,0l0.026,0.051l0.026,0.051l0,0.027l0.026,0.051l0,0l0.025,0.051l0,0.053l0.026,0.051l0,0.026l0.026,0.026l0,0.052l0.024,0.051l0.026,0.052l0,0l0,0.052l0.026,0.052l0,0.052l0.024,0.025l0,0.025l0.026,0.052l0,0.052l0.026,0.052l0,0l0,0.077l0.024,0.052l0.053,0.154l0,0.052l0.026,0.052l0,0l0,0.051l0.024,0.104l0.026,0.025l0,0.053l0.026,0.104l0,0.025l0.024,0.025l0,0.051l0.026,0.104l0,0.025l0,0.053l0.026,0.104l0.024,0.025l0,0.025l0,0.052l0.026,0.052l0,0.052l0,0.025l0.026,0.052l0,0.052l0.026,0.052l0,0.025l0,0.025l0,0.052l0.024,0.077l0,0.026l0,0.025l0,0.052l0.026,0.052l0,0.052l0,0.025l0.026,0.052l0,0.052l0,0.051l0,0.026l0.025,0.025l0,0.052l0,0.052l0.026,0.077l0,0.053l0,0.051l0,0.051l0,0.027l0.026,0.025l0,0.051l0,0.078l0.025,0.051l0,0l0,0.053l0,0.051l0,0.051l0,0.027l0,0.051l0.026,0.051l0,0.053l0,0.051l0,0l0,0.053l0,0.077l0.026,0.051l0,0l0,0.052l0,0.052l0,0.077l0,0.026l0,0.025l0,0.052l0,0.052l0.026,0.051l0,0.026l0,0.077l0,0l0,0.077l0,0l0,0.077l0,0l0.025,0.078l0,0l0,0.077l0,0l0.026,0.078l0,0l0,0.076l0.026,0l0,0.078l0,0l0.024,0.076l0,0l0.026,0.078l0,0l0.026,0.078l0,0l0.024,0.076l0,0l0.026,0.053l0,0.025l0.026,0.051l0,0l0.026,0.078l0,0l0.024,0.077l0.026,0l0.026,0.052l0,0.026l0.024,0.051l0,0l0.053,0.052l0,0.026l0.024,0.051l0,0l0.053,0.052l0,0.021l0.024,0.052l0,0l0.053,0.052l0,0.025l0.051,0.052l0.078,0.104l0.026,0.025l0.026,0.052l0,0l0.051,0.052l0,0l0.052,0.052l0.025,0l0.026,0.051l0.026,0l0.024,0.052l0.026,0l0.051,0.052l0,0l0.053,0.053l0,0l0.051,0.051l0,0l0.053,0.051l0.024,0l0.053,0.053l0,0l0.051,0.025l0,0.025l0.077,0.025l0,0l0.053,0.053l0,0l0.128,0.076l0,0l0,0l0.078,0.027l0,0l0.052,0.051l0.025,0l0.053,0.025l0,0l0.077,0.025l0,0l0.051,0.027l0.026,0.025l0.051,0.025l0,0l0.077,0.025l0,0l0.077,0.025l0,0l0.079,0l0,0.027l0.077,0l0,0l0.077,0.025l0,0l0.051,0.025l0.026,0l0.077,0l0,0.025l0.078,0l0,0l0.051,0.026l0.026,0l0.077,0l0.077,0l0,0l0.077,0.026l0,0l0.077,0l0.079,0l0,0l0.077,0l0.077,0l0.102,0l0.877,-0.026c2.76,0 5.287,1.136 7.093,2.94s2.941,4.333 2.941,7.092c0,1.341 -0.258,2.631 -0.723,3.791c-0.49,1.212 -1.237,2.296 -2.115,3.225c-1.212,1.237 -1.186,3.249 0.051,4.462l0.412,0.335c1.936,1.496 3.534,3.404 4.617,5.596c1.058,2.141 1.678,4.564 1.678,7.145c0,3.585 -1.188,6.912 -3.173,9.594l-0.104,0.154c-2.037,2.657 -4.925,4.669 -8.228,5.623c-1.546,0.464 -2.474,2.012 -2.218,3.585l0.104,1.47l0,0.078l0,0.051l0,0.052l0,0.078l0,0l0,0.103l0,0.026l0,0.051l0,0.078l-0.002,0l0,0.103l0,0.025l0,0.052l0,0.077l0,0.026l0,0.077l-0.026,0.025l0,0.052l0,0.077l0,0.026l0,0.077l0,0.025l-0.026,0.052l0,0.052l0,0.052l-0.026,0.077l0,0l0,0.129l-0.025,0.052l0,0.077l0,0l-0.026,0.077l0,0.052l0,0.025l-0.051,0.207l0,0.052l-0.026,0.077l0,0l-0.051,0.258l0,0l-0.026,0.078c-0.696,2.784 -2.579,5.08 -4.952,6.344l0,0.025l-0.051,0.025c-1.42,0.749 -3.019,1.161 -4.72,1.161c-1.264,0 -2.45,-0.231 -3.534,-0.618c-1.134,-0.439 -2.192,-1.084 -3.094,-1.857c-1.264,-1.109 -3.172,-1.031 -4.359,0.181c-1.084,1.136 -2.374,2.065 -3.793,2.735zm56.687,-323.901l87.636,0l0,-9.49l-120.106,0l0,255.711l0,0l0.026,0.052l0.026,0.052l0,0l0.024,0.052l0.026,0.077l0.026,0.052l0,0l0.024,0.052l0.053,0.077l0.026,0.052l0,0.025l0.024,0.025l0.026,0.078l0.026,0.052l0.025,0.051l0,0l0.026,0.078l0.026,0.051l0.025,0.053l0,0l0.026,0.051l0.026,0.078l0.025,0.051l0.026,0.025l0,0.053l0.026,0.051l0.026,0.051l0.024,0.053l0,0.025l0.026,0.051l0.026,0.053l0.024,0.077l0.026,0.052l0.026,0.052l0.024,0.077l0.026,0.025l0,0.026l0.034,0.05l0.026,0.077l0.024,0.052l0,0l0.026,0.077l0.026,0.052l0.024,0.051l0,0l0.026,0.078l0.026,0.051l0.024,0.078l0,0l0,0.051l0.026,0.052l0.026,0.077l0.026,0.027l0,0.025l0.024,0.051l0.026,0.078l0.026,0.051l0,0.025l0.025,0.053l0,0.051l0.026,0.078l0,0.025l0.155,0.413l0,0l0.052,0.206l0.025,0.025l0,0.077l0.026,0.052l0.026,0.052l0,0.025l0.024,0.052l0,0.052l0.053,0.129c0.154,0.593 0.282,1.187 0.412,1.779l0.026,0.155l0.181,0l0,0l0.179,0.025l0,0l0.156,0.025l0.024,0l0.154,0.026l0.026,0l0.154,0.026l0,0l0.181,0.025l0,0l0.181,0.051l0,0l0.181,0.027l0,0l0.154,0.025l0.026,0l0.154,0.051l0,0l0.181,0.025l0,0l0.155,0.053l0.026,0l0.154,0.051l0,0l0.181,0.025l0,0l0.154,0.053l0,0l0.181,0.051l0,0l0.155,0.053l0.026,0l0.154,0.051l0,0l0.154,0.051l0,0l0.181,0.053l0,0l0.154,0.051l0,0l0.155,0.053l0.026,0l0.154,0.077l0,0l0.156,0.052l0,0l0.154,0.051l0.024,0l0.156,0.078l0,0l0.154,0.077l0,0l0.155,0.052l0,0l0.154,0.077l0,0l0.154,0.077l0.026,0l0.154,0.077l0,0l0.13,0.052l0.024,0l0.156,0.077l0,0l0.128,0.077l0.026,0l0.128,0.078l0.026,0l0.128,0.104l0,0l0.156,0.076l0,0l0.154,0.078l0,0l0.155,0.078l0.128,0.102l0.026,0l0.13,0.078l0.154,0.104l0.154,0.076l0.13,0.104l0,0l0.154,0.078l0,0l0.128,0.104l0,0l0.154,0.103l0.13,0.104l0,0l0.154,0.103l0.13,0.104l0,0l0.128,0.103l0.13,0.104l0.155,0.104l0.128,0.103l0.13,0.104l0.128,0.104l0.13,0.129l0,0l0.128,0.104l0.129,0.102l0.128,0.129l0.13,0.104l0.102,0.13l0.13,0.129l0.128,0.104c2.967,2.966 4.798,7.066 4.798,11.579c0,2.166 -0.439,4.256 -1.213,6.164c-0.359,0.928 -0.825,1.806 -1.367,2.656c1.651,1.677 3.069,3.611 4.127,5.752c1.521,3.017 2.373,6.396 2.373,9.98c0,5.003 -1.676,9.646 -4.462,13.359l-0.154,0.207c-2.32,3.042 -5.441,5.493 -9,7.015l0,0.129l0,0.077l0,0.052l0,0.154l0,0l-0.026,0.129l0,0.077l0,0.078l0,0.129l0,0l-0.026,0.129l0,0.077l0,0.077l0,0.129l0,0l-0.024,0.129l0,0.077l0,0.077l-0.026,0.104l0,0.025l-0.026,0.13l0,0.052l0,0.104l-0.024,0.103l0,0.026l-0.026,0.129l0,0.051l0,0.078l-0.026,0.128l0,0.026l-0.025,0.129l0,0.052l-0.026,0.077l-0.026,0.103l0,0.026l-0.026,0.154l0,0.026l-0.025,0.103l-0.026,0.104l0,0.025l-0.026,0.129l-0.025,0.13l-0.026,0.104l-0.026,0.025l-0.024,0.129l0,0.025l-0.026,0.104l-0.026,0.104l-0.024,0.051l-0.026,0.104l0,0.025l-0.181,0.619l-0.051,0.154l0,0l-0.053,0.104l-0.026,0.077c-0.283,0.826 -0.618,1.599 -1.005,2.348l-0.025,0.025c-0.414,0.8 -0.903,1.548 -1.446,2.27l-0.024,0.025c-0.439,0.542 -0.904,1.084 -1.394,1.574l-0.644,0.618l-0.078,0.077l0,0l-0.593,0.491l-0.053,0.051l-0.335,0.258l-0.078,0.052l-0.026,0.026l-0.078,0.051l-0.051,0.052l-0.053,0.026l-0.154,0.129l0,33.011l29.324,0l0,-356.662c0.011,-1.729 1.43,-3.173 3.157,-3.173z"/></g></g><g/></svg>