<svg xmlns="http://www.w3.org/2000/svg" viewBox="0 0 512 512" width="512px" height="512px" fill="#0070f3"><g><g><path d="M371.443,341.071c-1.209,0.054-2.419,0.089-3.623,0.089c-0.011,0-0.022-0.001-0.033-0.001 c-0.036,0-0.071-0.001-0.107-0.001c-1.214-0.003-2.432-0.037-3.649-0.094c-0.111-0.005-0.223-0.003-0.335-0.008l-0.06,7.223 l-0.027,3.35h8.133l0.088-10.566C371.701,341.069,371.572,341.066,371.443,341.071z"/><path d="M354.318,347.865l0.066-7.807c-0.567-0.093-1.127-0.206-1.689-0.312 c-0.407-0.075-0.815-0.143-1.22-0.225c-0.79-0.158-1.574-0.338-2.357-0.519c-0.296-0.068-0.595-0.128-0.89-0.2 c-1.079-0.262-2.15-0.545-3.212-0.851c-0.139-0.04-0.274-0.086-0.411-0.126c-0.92-0.27-1.833-0.55-2.74-0.851 c-0.351-0.117-0.697-0.246-1.047-0.368c-0.688-0.238-1.375-0.477-2.054-0.733c-0.401-0.152-0.796-0.316-1.194-0.474 c-0.621-0.245-1.242-0.492-1.856-0.753c-0.417-0.179-0.831-0.366-1.245-0.551c-0.586-0.262-1.17-0.523-1.75-0.799 c-0.422-0.201-0.842-0.41-1.261-0.617c-0.563-0.279-1.123-0.563-1.679-0.854c-0.42-0.222-0.838-0.448-1.256-0.678 c-0.545-0.299-1.088-0.604-1.626-0.916c-0.415-0.24-0.828-0.484-1.238-0.732c-0.532-0.321-1.062-0.65-1.587-0.985 c-0.404-0.257-0.808-0.514-1.207-0.778c-0.525-0.348-1.044-0.703-1.562-1.063c-0.389-0.27-0.778-0.539-1.162-0.815 c-0.522-0.377-1.037-0.766-1.552-1.155c-0.368-0.279-0.739-0.554-1.104-0.841c-0.529-0.415-1.05-0.846-1.57-1.275 c-0.338-0.277-0.679-0.55-1.012-0.833c-0.568-0.484-1.127-0.986-1.685-1.488c-0.272-0.246-0.552-0.483-0.821-0.732 c-0.823-0.761-1.635-1.537-2.433-2.334c-9.352-9.351-16.141-20.574-20.06-32.815l-24.087,21.678 c-0.889,0.799-2.004,1.195-3.116,1.195c-1.196,0-2.389-0.457-3.296-1.365l-61.438-61.438l-24.734,32.98 c-1.545,2.059-4.466,2.477-6.524,0.933c-2.059-1.545-2.476-4.466-0.932-6.524l27.959-37.278c0.811-1.08,2.05-1.756,3.397-1.852 c1.341-0.099,2.67,0.397,3.625,1.353l62.111,62.111l24.479-22.031c-0.879-4.835-1.349-9.781-1.349-14.8 c0-21.855,8.512-42.402,23.965-57.856c0.966-0.965,1.951-1.903,2.955-2.814c15.063-13.661,34.4-21.138,54.892-21.138 c0.686,0,1.375,0.01,2.064,0.026V86.011L321.609,46.31H105.822v40.237v292.382c0,0.397-0.021,0.79-0.047,1.182l-0.012,0.199 c-0.003,0.033-0.005,0.067-0.008,0.102c-0.047,0.581-0.131,1.156-0.231,1.729c-0.03,0.169-0.066,0.337-0.101,0.505 c-0.086,0.421-0.186,0.839-0.299,1.254c-0.046,0.164-0.088,0.329-0.138,0.493c-0.166,0.551-0.348,1.099-0.561,1.635 c-0.001,0.004-0.002,0.008-0.004,0.011c-0.214,0.541-0.458,1.072-0.716,1.596c-0.077,0.155-0.159,0.308-0.24,0.462 c-0.199,0.381-0.409,0.757-0.631,1.128c-0.091,0.15-0.179,0.303-0.272,0.451c-0.303,0.48-0.619,0.953-0.957,1.411 c-0.012,0.016-0.021,0.031-0.032,0.046c0,0.001-0.001,0.002-0.001,0.003h233.798v-34.845c0-2.574,2.086-4.66,4.66-4.66h14.257 L354.318,347.865z M299.98,60.289h18.639v18.639H299.98V60.289z M286.001,97.567c0-2.573,2.086-4.66,4.66-4.66 c2.573,0,4.659,2.087,4.659,4.66v93.195c0,2.573-2.086,4.66-4.659,4.66c-2.574,0-4.66-2.087-4.66-4.66V97.567z M258.042,116.206 c0-2.573,2.086-4.659,4.66-4.659c2.573,0,4.659,2.086,4.659,4.659v74.557c0,2.573-2.086,4.66-4.659,4.66 c-2.574,0-4.66-2.087-4.66-4.66V116.206z M230.083,134.846c0-2.573,2.087-4.66,4.66-4.66s4.66,2.087,4.66,4.66v55.917 c0,2.573-2.087,4.66-4.66,4.66s-4.66-2.087-4.66-4.66V134.846z M202.125,125.525c0-2.573,2.086-4.659,4.659-4.659 s4.66,2.086,4.66,4.659v65.237c0,2.573-2.087,4.66-4.66,4.66s-4.659-2.087-4.659-4.66V125.525z M183.485,153.484v37.278 c0,2.573-2.086,4.66-4.66,4.66c-2.573,0-4.659-2.087-4.659-4.66v-37.278c0-2.573,2.086-4.66,4.659-4.66 C181.399,148.824,183.485,150.911,183.485,153.484z M160.187,60.289h18.639v18.639h-18.639V60.289z M299.98,363.175H141.547 c-2.573,0-4.659-2.086-4.659-4.66V79.859c0-2.573,2.086-4.659,4.659-4.659c2.574,0,4.66,2.086,4.66,4.659v273.996H299.98 c2.573,0,4.66,2.086,4.66,4.659C304.641,361.089,302.554,363.175,299.98,363.175z"/><path d="M358.909,360.948H344.69v34.845v48.621c0,11.731,10.105,21.276,22.526,21.276 s22.526-9.545,22.526-21.276v-83.466h-13.381H358.909z M374.883,442.737c-4.343,4.343-11.385,4.343-15.728,0 c-4.343-4.344-4.343-11.385,0-15.729c4.343-4.343,11.385-4.343,15.728,0C379.226,431.353,379.226,438.394,374.883,442.737z"/><path d="M419.087,208.079c-12.036-12.036-28.001-19.476-44.953-20.947c-2.093-0.183-4.22-0.274-6.321-0.274 c-18.158,0-35.292,6.624-48.639,18.729c-0.891,0.808-1.763,1.638-2.618,2.493c-13.694,13.694-21.235,31.9-21.235,51.267 c0,2.454,0.124,4.89,0.363,7.3l57.097-51.388c1.583-1.425,3.929-1.595,5.702-0.413l55.918,37.278 c2.141,1.427,2.72,4.32,1.292,6.462c-1.426,2.141-4.32,2.72-6.462,1.292l-52.906-35.271l-58.726,52.854 c3.185,12.434,9.644,23.837,18.957,33.15c11.721,11.721,26.606,18.902,43.047,20.767c5.422,0.613,10.979,0.615,16.406,0.003 c16.454-1.859,31.35-9.041,43.077-20.77c13.694-13.694,21.236-31.899,21.236-51.265 C440.322,239.979,432.78,221.773,419.087,208.079z"/><path d="M73.359,379.319c0,6.269,5.084,11.494,11.379,11.782c0.183-0.012,0.365-0.036,0.549-0.06 c0.153-0.018,0.308-0.031,0.461-0.058c0.208-0.035,0.413-0.086,0.619-0.133c0.146-0.034,0.291-0.062,0.435-0.102 c0.211-0.057,0.419-0.13,0.628-0.201c0.137-0.045,0.274-0.085,0.41-0.137c0.211-0.08,0.418-0.174,0.625-0.266 c0.129-0.058,0.261-0.108,0.389-0.171c0.209-0.101,0.412-0.215,0.615-0.326c0.123-0.067,0.248-0.13,0.368-0.2 c0.201-0.12,0.397-0.252,0.594-0.382c0.117-0.077,0.236-0.149,0.351-0.229c0.193-0.137,0.379-0.284,0.566-0.431 c0.11-0.086,0.225-0.167,0.332-0.257c0.183-0.151,0.355-0.313,0.531-0.473c0.104-0.096,0.212-0.187,0.314-0.285 c0.167-0.162,0.325-0.335,0.484-0.505c0.1-0.105,0.203-0.207,0.299-0.314c0.152-0.172,0.293-0.353,0.436-0.53 c0.093-0.115,0.191-0.227,0.279-0.345c0.136-0.18,0.258-0.366,0.384-0.552c0.085-0.124,0.176-0.244,0.256-0.371 c0.117-0.186,0.221-0.377,0.328-0.566c0.075-0.133,0.158-0.263,0.229-0.397c0.101-0.194,0.186-0.393,0.275-0.59 c0.063-0.137,0.133-0.271,0.189-0.407c0.082-0.199,0.146-0.402,0.218-0.605c0.049-0.141,0.106-0.278,0.149-0.42 c0.065-0.213,0.111-0.429,0.163-0.645c0.031-0.133,0.073-0.265,0.1-0.398c0.057-0.286,0.092-0.576,0.123-0.865 c0.007-0.063,0.021-0.127,0.027-0.19l0.01-0.173c0.013-0.194,0.028-0.391,0.028-0.589V91.206H71.678L73.359,379.319z"/></g></g><g/></svg>